HIERARCHY
ROOT hip
{
  OFFSET 0 0 0
  CHANNELS 6 Xposition Yposition Zposition Zrotation Yrotation Xrotation
  JOINT abdomen
  {
    OFFSET 0 20.6881 -0.73152
    CHANNELS 3 Zrotation Xrotation Yrotation
    JOINT chest
    {
      OFFSET 0 11.7043 -0.48768
      CHANNELS 3 Zrotation Xrotation Yrotation
      JOINT neck
      {
        OFFSET 0 22.1894 -2.19456
        CHANNELS 3 Zrotation Xrotation Yrotation
        JOINT head
        {
          OFFSET -0.24384 7.07133 1.2192
          CHANNELS 3 Zrotation Xrotation Yrotation
          JOINT leftEye
          {
            OFFSET 4.14528 8.04674 8.04672
            CHANNELS 3 Zrotation Xrotation Yrotation
            End Site
            {
              OFFSET 1 0 0
            }
          }
          JOINT rightEye
          {
            OFFSET -3.6576 8.04674 8.04672
            CHANNELS 3 Zrotation Xrotation Yrotation
            End Site
            {
              OFFSET 1 0 0
            }
          }
        }
      }
      JOINT rCollar
      {
        OFFSET -2.68224 19.2634 -4.8768
        CHANNELS 3 Zrotation Xrotation Yrotation
        JOINT rShldr
        {
          OFFSET -8.77824 -1.95073 1.46304
          CHANNELS 3 Zrotation Xrotation Yrotation
          JOINT rForeArm
          {
            OFFSET -28.1742 -1.7115 0.48768
            CHANNELS 3 Zrotation Xrotation Yrotation
            JOINT rHand
            {
              OFFSET -22.5879 0.773209 7.07136
              CHANNELS 3 Zrotation Xrotation Yrotation
              JOINT rThumb1
              {
                OFFSET -1.2192 -0.487915 3.41376
                CHANNELS 3 Zrotation Xrotation Yrotation
                JOINT rThumb2
                {
                  OFFSET -3.37035 -0.52449 3.41376
                  CHANNELS 3 Zrotation Xrotation Yrotation
                  End Site
                  {
                    OFFSET -1.78271 -1.18214 1.43049
                  }
                }
              }
              JOINT rIndex1
              {
                OFFSET -7.75947 0.938293 5.60832
                CHANNELS 3 Zrotation Xrotation Yrotation
                JOINT rIndex2
                {
                  OFFSET -2.54057 -0.884171 1.56538
                  CHANNELS 3 Zrotation Xrotation Yrotation
                  End Site
                  {
                    OFFSET -1.62519 -0.234802 1.16502
                  }
                }
              }
              JOINT rMid1
              {
                OFFSET -8.24714 1.18213 3.41376
                CHANNELS 3 Zrotation Xrotation Yrotation
                JOINT rMid2
                {
                  OFFSET -3.10165 -0.590103 1.0647
                  CHANNELS 3 Zrotation Xrotation Yrotation
                  End Site
                  {
                    OFFSET -2.48547 -0.328903 0.83742
                  }
                }
              }
              JOINT rRing1
              {
                OFFSET -8.82822 0.546677 1.51678
                CHANNELS 3 Zrotation Xrotation Yrotation
                JOINT rRing2
                {
                  OFFSET -2.60934 -0.819778 -0.0198488
                  CHANNELS 3 Zrotation Xrotation Yrotation
                  End Site
                  {
                    OFFSET -2.33842 -0.294052 0.168128
                  }
                }
              }
              JOINT rPinky1
              {
                OFFSET -8.27202 -0.0477905 -0.4584
                CHANNELS 3 Zrotation Xrotation Yrotation
                JOINT rPinky2
                {
                  OFFSET -1.82734 -0.647385 -0.700984
                  CHANNELS 3 Zrotation Xrotation Yrotation
                  End Site
                  {
                    OFFSET -1.69225 -0.51767 -0.607171
                  }
                }
              }
            }
          }
        }
      }
      JOINT lCollar
      {
        OFFSET 2.68224 19.2634 -4.8768
        CHANNELS 3 Zrotation Xrotation Yrotation
        JOINT lShldr
        {
          OFFSET 8.77824 -1.95073 1.46304
          CHANNELS 3 Zrotation Xrotation Yrotation
          JOINT lForeArm
          {
            OFFSET 28.1742 -1.7115 0.48768
            CHANNELS 3 Zrotation Xrotation Yrotation
            JOINT lHand
            {
              OFFSET 22.5879 0.773209 7.07136
              CHANNELS 3 Zrotation Xrotation Yrotation
              JOINT lThumb1
              {
                OFFSET 1.2192 -0.487915 3.41376
                CHANNELS 3 Zrotation Xrotation Yrotation
                JOINT lThumb2
                {
                  OFFSET 3.37035 -0.52449 3.41376
                  CHANNELS 3 Zrotation Xrotation Yrotation
                  End Site
                  {
                    OFFSET 1.78271 -1.18214 1.43049
                  }
                }
              }
              JOINT lIndex1
              {
                OFFSET 7.75947 0.938293 5.60832
                CHANNELS 3 Zrotation Xrotation Yrotation
                JOINT lIndex2
                {
                  OFFSET 2.54057 -0.884171 1.56538
                  CHANNELS 3 Zrotation Xrotation Yrotation
                  End Site
                  {
                    OFFSET 1.62519 -0.234802 1.16502
                  }
                }
              }
              JOINT lMid1
              {
                OFFSET 8.24714 1.18213 3.41376
                CHANNELS 3 Zrotation Xrotation Yrotation
                JOINT lMid2
                {
                  OFFSET 3.10165 -0.590103 1.0647
                  CHANNELS 3 Zrotation Xrotation Yrotation
                  End Site
                  {
                    OFFSET 2.48547 -0.328903 0.83742
                  }
                }
              }
              JOINT lRing1
              {
                OFFSET 8.82822 0.546677 1.51678
                CHANNELS 3 Zrotation Xrotation Yrotation
                JOINT lRing2
                {
                  OFFSET 2.60934 -0.819778 -0.0198488
                  CHANNELS 3 Zrotation Xrotation Yrotation
                  End Site
                  {
                    OFFSET 2.33842 -0.294052 0.168128
                  }
                }
              }
              JOINT lPinky1
              {
                OFFSET 8.27202 -0.0477905 -0.4584
                CHANNELS 3 Zrotation Xrotation Yrotation
                JOINT lPinky2
                {
                  OFFSET 1.82734 -0.647385 -0.700984
                  CHANNELS 3 Zrotation Xrotation Yrotation
                  End Site
                  {
                    OFFSET 1.69225 -0.51767 -0.607171
                  }
                }
              }
            }
          }
        }
      }
    }
  }
  JOINT rButtock
  {
    OFFSET -8.77824 4.35084 1.2192
    CHANNELS 3 Zrotation Xrotation Yrotation
    JOINT rThigh
    {
      OFFSET 0 -1.70687 -2.19456
      CHANNELS 3 Zrotation Xrotation Yrotation
      JOINT rShin
      {
        OFFSET 0 -36.8199 0.73152
        CHANNELS 3 Zrotation Xrotation Yrotation
        JOINT rFoot
        {
          OFFSET 0.73152 -45.1104 -5.12064
          CHANNELS 3 Zrotation Xrotation Yrotation
          End Site
          {
            OFFSET -1.1221 -3.69964 12.103
          }
        }
      }
    }
  }
  JOINT lButtock
  {
    OFFSET 8.77824 4.35084 1.2192
    CHANNELS 3 Zrotation Xrotation Yrotation
    JOINT lThigh
    {
      OFFSET 0 -1.70687 -2.19456
      CHANNELS 3 Zrotation Xrotation Yrotation
      JOINT lShin
      {
        OFFSET 0 -36.8199 0.73152
        CHANNELS 3 Zrotation Xrotation Yrotation
        JOINT lFoot
        {
          OFFSET -0.73152 -45.1104 -5.12064
          CHANNELS 3 Zrotation Xrotation Yrotation
          End Site
          {
            OFFSET 1.1221 -3.69964 12.103
          }
        }
      }
    }
  }
}
MOTION
Frames:	4
Frame Time:	0.03333
0.005293078720569611 -7.4555404484272 -0.023071281611919403 -4.626648426055908 -0.4969433546066284 6.155389308929443 -2.7349231243133545 14.237689971923828 3.854217529296875 2.6644845008850098 -9.266467094421387 1.2828270196914673 -5.114168167114258 15.154203414916992 -3.863881826400757 8.901639938354492 -24.446718215942383 -5.720716953277588 -0.02626328356564045 0.09846801310777664 0.05763932317495346 0.057750895619392395 -0.019574875012040138 -0.01952081359922886 -0.03957545384764671 0.01869768463075161 0.005886928178369999 46.375244140625 38.220157623291016 18.05461311340332 -27.242319107055664 -27.01116943359375 62.607120513916016 0.012759558856487274 -10.648712158203125 -1.5724538564682007 0.0396927110850811 0.05229247733950615 -0.05095049738883972 -0.05339016392827034 0.07976918667554855 -0.12271246314048767 -0.010095982812345028 -0.0051964824087917805 -0.07704668492078781 7.661296367645264 5.564639568328857 0.4449620246887207 -0.17900387942790985 0.1409018337726593 0.01711190864443779 2.9038941860198975 0.948686420917511 0.12380179762840271 0.08204884827136993 0.12329021841287613 -0.07103446125984192 10.296398162841797 0.7705612778663635 0.10214883834123611 0.06046226620674133 0.005620107054710388 -0.05687935650348663 2.32718563079834 -0.7488815784454346 -0.2927532196044922 0.0839301273226738 -0.03636094182729721 -0.05761973187327385 -54.62668228149414 40.28263854980469 -26.879478454589844 26.52956199645996 -24.923419952392578 -59.12165832519531 0.25633788108825684 -12.061576843261719 1.7002729177474976 0.005549635738134384 0.07687053829431534 0.03815966844558716 0.05273367464542389 -0.08003415912389755 -0.001541425590403378 0.04184757173061371 -0.0762975662946701 0.07293637841939926 -7.846473217010498 5.380253791809082 -0.43502500653266907 0.0030737798660993576 -0.0807122215628624 0.11671275645494461 -2.919489860534668 0.9862825870513916 -0.17255854606628418 0.030131760984659195 0.1296025812625885 -0.030982550233602524 -10.261942863464355 0.656521737575531 -0.18532484769821167 0.02308046817779541 -0.035495076328516006 0.03911447525024414 -2.2257940769195557 -0.7887418270111084 0.24116654694080353 0.08132791519165039 0.046848028898239136 -0.08579976111650467 -22.928674697875977 -39.39796829223633 -18.763378143310547 -1.3095611333847046 63.792842864990234 2.3582029342651367 -3.9171078205108643 -10.450833320617676 -10.139727592468262 -0.026774529367685318 0.010165748186409473 -0.09107310324907303 27.868547439575195 -38.357662200927734 20.985275268554688 1.5304217338562012 64.01054382324219 -2.7300970554351807 4.784094333648682 -10.740290641784668 14.217046737670898
0.0074395909905433655 -7.468441873788834 -0.054695550352334976 -4.823986530303955 -0.954514741897583 6.286360740661621 -2.6810803413391113 14.289523124694824 3.913557767868042 2.604837417602539 -9.315875053405762 1.203140377998352 -5.069201946258545 15.148749351501465 -3.8915090560913086 8.89903736114502 -24.477657318115234 -5.572255611419678 -0.00658196397125721 0.09730078279972076 0.05482332780957222 0.10638698190450668 -0.06731574237346649 0.021867923438549042 -0.07005675137042999 0.015774333849549294 -0.0309279914945364 46.03078079223633 38.20728302001953 18.366323471069336 -27.24392318725586 -27.0118350982666 62.77622985839844 0.03809094429016113 -10.435032844543457 -1.5480880737304688 0.03898625448346138 0.04062686860561371 -0.09429080039262772 -0.04529309272766113 0.12903006374835968 -0.029409227892756462 0.0017894674092531204 -0.06831564009189606 -0.07799991220235825 7.681338787078857 5.569752216339111 0.4995168447494507 -0.21737727522850037 0.18151229619979858 0.05173622444272041 2.8639938831329346 0.9189876914024353 0.09455320239067078 0.1463940441608429 0.15257276594638824 -0.040962349623441696 10.290639877319336 0.7817217111587524 0.036823805421590805 0.10454972088336945 0.038371890783309937 -0.05840647965669632 2.3214120864868164 -0.7587191462516785 -0.34186363220214844 0.1273847371339798 -0.06414098292589188 -0.08444878458976746 -54.5416259765625 40.39395523071289 -26.72289276123047 26.468425750732422 -24.906267166137695 -59.24544143676758 0.24237047135829926 -12.37075424194336 1.6805039644241333 -0.06634344160556793 0.057793743908405304 0.008670919574797153 0.05605364590883255 -0.05474075302481651 -0.040350425988435745 0.08178673684597015 -0.09253260493278503 0.09152915328741074 -7.928683757781982 5.351260185241699 -0.41228410601615906 -0.034536879509687424 -0.12209057062864304 0.05870551988482475 -2.8962671756744385 1.0171321630477905 -0.12738807499408722 0.04648996517062187 0.09231550991535187 -0.0016637651715427637 -10.257567405700684 0.6841557025909424 -0.14965790510177612 0.013221047818660736 -0.031500283628702164 0.08609625697135925 -2.2109744548797607 -0.8059649467468262 0.2557387948036194 0.04872601479291916 0.02134210802614689 -0.07895343750715256 -22.952234268188477 -39.66131591796875 -18.679893493652344 -1.4910459518432617 63.99806213378906 2.533128023147583 -4.079855918884277 -10.509223937988281 -10.379327774047852 -0.010717084631323814 0.018722256645560265 -0.10073056817054749 27.65488052368164 -38.292022705078125 20.793292999267578 1.6461870670318604 63.92693328857422 -2.805081367492676 4.866443157196045 -10.700152397155762 14.28054141998291
0.02132374793291092 -6.652924418449402 -0.09629540145397186 -30.374300003051758 81.40514373779297 -14.221385955810547 2.8098862171173096 20.82213020324707 -6.572617053985596 8.650135040283203 -11.341323852539062 -0.732725977897644 -9.214529037475586 22.347360610961914 -16.32522201538086 21.517709732055664 -28.168357849121094 -28.30120849609375 0.08359586447477341 0.17559266090393066 -0.14320208132266998 0.1398984044790268 -0.23134346306324005 -0.0982026681303978 -0.026469217613339424 -0.048923417925834656 0.06226401403546333 45.39445495605469 6.007139682769775 4.307207107543945 -27.228321075439453 -43.33710479736328 91.14947509765625 -0.45444464683532715 -19.881128311157227 -2.911287784576416 0.23251566290855408 0.06194138154387474 -0.025417689234018326 -0.03278293460607529 0.050180383026599884 -0.29517921805381775 -0.13127422332763672 0.1467062532901764 -0.049163270741701126 7.748952388763428 5.446988105773926 0.7921490669250488 -0.23522889614105225 0.08026741445064545 -0.16601808369159698 2.980325937271118 1.1524326801300049 -0.03791692852973938 0.12320573627948761 0.029238827526569366 -0.11909162253141403 10.470666885375977 0.681424081325531 0.01892208680510521 -0.048973120748996735 0.31001579761505127 0.11884143948554993 2.593252182006836 -0.7555601000785828 -0.4606885015964508 -0.08039793372154236 -0.039446357637643814 -0.2022853046655655 -10.675125122070312 62.0706787109375 -67.34362030029297 27.25545883178711 -43.92607879638672 -91.43067932128906 0.8608265519142151 -22.246488571166992 3.0056939125061035 0.008736333809792995 -0.10993020236492157 0.05648749694228172 0.06710471212863922 0.043635617941617966 -0.2999177575111389 0.25669166445732117 -0.024345122277736664 -0.24234822392463684 -7.751646041870117 5.306682109832764 -0.6027928590774536 -0.2024288922548294 -0.3923299014568329 0.0071810223162174225 -2.9255332946777344 0.8353963494300842 -0.4068639576435089 0.0484871082007885 0.14748238027095795 0.24082109332084656 -10.355135917663574 0.8944462537765503 -0.012195839546620846 -0.07837966829538345 0.03247622027993202 0.10251323878765106 -2.1957411766052246 -0.9979673027992249 0.29649192094802856 -0.26027458906173706 0.1809016466140747 -0.0028645049314945936 -49.649967193603516 -50.33441162109375 -37.01279067993164 -2.079198122024536 77.34220886230469 2.7991645336151123 3.783097267150879 -13.016802787780762 10.645855903625488 0.16830141842365265 -0.13593576848506927 -0.2091408222913742 63.61109924316406 -48.95112228393555 47.22964096069336 55.879390716552734 89.04447174072266 -57.935977935791016 3.450942039489746 -19.074621200561523 6.836010932922363
0.0005057081580162048 -6.228978931903839 -0.15718434005975723 -23.991840362548828 80.03852844238281 -10.776603698730469 1.485221266746521 19.205482482910156 -7.65347146987915 9.109641075134277 -11.750153541564941 -0.9324270486831665 -9.238633155822754 22.19965171813965 -16.313873291015625 20.89518165588379 -28.22185516357422 -28.238746643066406 0.045956503599882126 0.13591134548187256 0.041990961879491806 0.11165252327919006 -0.17168714106082916 -0.34015733003616333 -0.29070228338241577 -0.5574551820755005 -0.048305779695510864 42.15867614746094 3.8549418449401855 4.283373832702637 -27.01239013671875 -43.36373519897461 91.1832275390625 -0.2508971691131592 -18.438119888305664 -2.82654070854187 0.13894949853420258 -0.054829493165016174 0.16848720610141754 -0.2781371474266052 0.25538113713264465 -0.0034141680225729942 -0.14322704076766968 -0.031803738325834274 -0.23722732067108154 7.568235874176025 5.404844284057617 1.0237808227539062 0.0004890278214588761 0.15053658187389374 -0.6298038363456726 2.79911732673645 0.9475824236869812 -0.02478863298892975 0.015533152036368847 -0.007766702678054571 0.062117692083120346 10.324494361877441 0.8225984573364258 0.07907930761575699 0.14256390929222107 0.25977540016174316 -0.018058015033602715 2.467975378036499 -0.6650701761245728 -0.4744020104408264 -0.24342134594917297 -0.13490541279315948 -0.2173011153936386 -13.130902290344238 62.585636138916016 -66.20240783691406 26.809972763061523 -44.6996955871582 -93.09732055664062 0.440190851688385 -19.99705696105957 2.8850150108337402 -0.006037995684891939 -0.27484992146492004 -0.15002131462097168 0.30690109729766846 0.2935556173324585 -0.19893482327461243 0.40987515449523926 0.1855793297290802 -0.015583564527332783 -7.590897560119629 5.23876953125 -0.7336907386779785 0.2999368906021118 -0.3221120834350586 0.26156526803970337 -3.088826894760132 0.6337440609931946 -0.38783979415893555 0.044636499136686325 -0.0929095447063446 0.3093550205230713 -10.246826171875 0.7287383675575256 -0.10333728790283203 0.31998100876808167 0.09082638472318649 0.12278946489095688 -2.0891213417053223 -0.8630592226982117 0.26172003149986267 0.28616276383399963 0.04425980895757675 -0.030722785741090775 -53.15789031982422 -53.67377471923828 -36.347412109375 -2.151326894760132 79.45587921142578 3.126304864883423 6.150655746459961 -16.608570098876953 13.923532485961914 -0.1360379457473755 -0.22710035741329193 -0.3253365755081177 69.74202728271484 -49.1460075378418 49.4788703918457 13.193794250488281 86.83472442626953 -15.140396118164062 2.7908287048339844 -20.816011428833008 7.315774440765381
